<?xml version="1.0" encoding="UTF-8" standalone="no"?> <svg width="100%" height="100%" viewBox="0 0 24 24" fill="none" xmlns="http://www.w3.org/2000/svg">
<path fill-rule="evenodd" clip-rule="evenodd" d="M6.58255 9.11459C7.35629 7.24249 9.19558 5.75 11.9996 5.75C14.8437 5.75 16.6635 7.42405 17.4206 9.3377C17.7948 10.2838 17.9172 11.303 17.7734 12.2274C17.6302 13.1488 17.2112 14.0289 16.4496 14.6C14.7495 15.8751 14.7496 17.3867 14.7496 17.9915V18C14.7496 18.4142 14.4138 18.75 13.9996 18.75H9.99965C9.58544 18.75 9.24965 18.4142 9.24965 18V17.9957C9.24966 17.7792 9.24967 17.3822 9.0448 16.8188C8.8365 16.246 8.40111 15.4621 7.46931 14.5303C6.08416 13.1452 5.83133 10.9322 6.58255 9.11459ZM7.96882 9.68753C7.40408 11.0539 7.65125 12.591 8.52996 13.4697C9.59817 14.5379 10.1628 15.504 10.4545 16.3062C10.5848 16.6647 10.6576 16.9825 10.6983 17.25H13.2828C13.3858 16.2571 13.8094 14.7052 15.5496 13.4C15.9195 13.1226 16.1911 12.6409 16.2913 11.997C16.3909 11.356 16.3093 10.6063 16.0258 9.8895C15.4671 8.47742 14.1556 7.25 11.9996 7.25C9.80369 7.25 8.51105 8.3756 7.96882 9.68753Z" fill="#bad2ff"/>
<path fill-rule="evenodd" clip-rule="evenodd" d="M4.78675 12.6522C5.17289 12.6522 5.46242 12.3385 5.46242 11.9523C5.46242 11.5743 5.16168 11.2658 4.78689 11.253C4.77891 11.2528 4.77075 11.2526 4.76271 11.2526H3.04946C2.66332 11.2526 2.34961 11.5664 2.34961 11.9523C2.34961 12.3385 2.66336 12.652 3.04932 12.652L4.78675 12.6522Z" fill="#bad2ff"/>
<path fill-rule="evenodd" clip-rule="evenodd" d="M21.4368 12.6522C21.8229 12.6522 22.1124 12.3385 22.1124 11.9523C22.1124 11.5743 21.8117 11.2658 21.4369 11.253C21.4289 11.2528 21.4208 11.2526 21.4127 11.2526H19.6995C19.3133 11.2526 18.9996 11.5664 18.9996 11.9523C18.9996 12.3385 19.3134 12.652 19.6993 12.652L21.4368 12.6522Z" fill="#bad2ff"/>
<path fill-rule="evenodd" clip-rule="evenodd" d="M11.3001 4.43714C11.3001 4.82328 11.6138 5.11281 11.9999 5.11281C12.378 5.11281 12.6865 4.81208 12.6992 4.43728C12.6995 4.4293 12.6996 4.42114 12.6996 4.4131V2.69985C12.6996 2.31371 12.3859 2 11.9999 2C11.6138 2 11.3002 2.31375 11.3002 2.69971L11.3001 4.43714Z" fill="#bad2ff"/>
<path fill-rule="evenodd" clip-rule="evenodd" d="M5.72298 6.71298C5.99602 6.98602 6.4226 6.9689 6.69564 6.69586C6.96295 6.42855 6.96844 5.99776 6.71244 5.72371C6.70699 5.71787 6.70133 5.71201 6.69564 5.70632L5.48419 4.49487C5.21115 4.22183 4.76746 4.22186 4.49455 4.49477C4.22151 4.76781 4.22163 5.2114 4.49455 5.48431L5.72298 6.71298Z" fill="#bad2ff"/>
<path fill-rule="evenodd" clip-rule="evenodd" d="M17.4774 5.72334C17.2043 5.99638 17.2215 6.42297 17.4945 6.696C17.7618 6.96332 18.1926 6.9688 18.4667 6.71281C18.4725 6.70736 18.4784 6.70169 18.4841 6.696L19.6955 5.48455C19.9685 5.21151 19.9685 4.76783 19.6956 4.49491C19.4226 4.22188 18.979 4.222 18.7061 4.49491L17.4774 5.72334Z" fill="#bad2ff"/>
<path fill-rule="evenodd" clip-rule="evenodd" d="M9.74963 20C9.74963 19.5858 10.0854 19.25 10.4996 19.25H13.4996C13.9138 19.25 14.2496 19.5858 14.2496 20C14.2496 20.4142 13.9138 20.75 13.4996 20.75H10.4996C10.0854 20.75 9.74963 20.4142 9.74963 20Z" fill="#bad2ff"/>
<path fill-rule="evenodd" clip-rule="evenodd" d="M10.7496 22C10.7496 21.5858 11.0854 21.25 11.4996 21.25H12.4996C12.9138 21.25 13.2496 21.5858 13.2496 22C13.2496 22.4142 12.9138 22.75 12.4996 22.75H11.4996C11.0854 22.75 10.7496 22.4142 10.7496 22Z" fill="#bad2ff"/>
</svg>
