<?xml version="1.0" encoding="UTF-8" standalone="no"?> <svg width="100%" height="100%" viewBox="0 0 24 24" fill="none" xmlns="http://www.w3.org/2000/svg">
<path fill-rule="evenodd" clip-rule="evenodd" d="M6.53033 2.96967C6.82322 3.26256 6.82322 3.73744 6.53033 4.03033L4.06066 6.5L6.53033 8.96967C6.82322 9.26256 6.82322 9.73744 6.53033 10.0303C6.23744 10.3232 5.76256 10.3232 5.46967 10.0303L2.46967 7.03033C2.17678 6.73744 2.17678 6.26256 2.46967 5.96967L5.46967 2.96967C5.76256 2.67678 6.23744 2.67678 6.53033 2.96967ZM21.5303 12.9697C21.8232 13.2626 21.8232 13.7374 21.5303 14.0303L19.0607 16.5L21.5303 18.9697C21.8232 19.2626 21.8232 19.7374 21.5303 20.0303C21.2374 20.3232 20.7626 20.3232 20.4697 20.0303L17.4697 17.0303C17.1768 16.7374 17.1768 16.2626 17.4697 15.9697L20.4697 12.9697C20.7626 12.6768 21.2374 12.6768 21.5303 12.9697ZM12 3.75C11.5858 3.75 11.25 4.08579 11.25 4.5C11.25 4.91421 11.5858 5.25 12 5.25H21C21.4142 5.25 21.75 4.91421 21.75 4.5C21.75 4.08579 21.4142 3.75 21 3.75H12ZM11.25 8.5C11.25 8.08579 11.5858 7.75 12 7.75H21C21.4142 7.75 21.75 8.08579 21.75 8.5C21.75 8.91421 21.4142 9.25 21 9.25H12C11.5858 9.25 11.25 8.91421 11.25 8.5ZM3 17.75H4.4131L3.1006 19.25H3C2.58579 19.25 2.25 18.9142 2.25 18.5C2.25 18.0858 2.58579 17.75 3 17.75ZM12 19.25H7.0869L8.3994 17.75H12C12.4142 17.75 12.75 18.0858 12.75 18.5C12.75 18.9142 12.4142 19.25 12 19.25ZM11.4939 11.9356C11.8056 12.2083 11.8372 12.6822 11.5644 12.9939L4.56444 20.9939C4.29168 21.3056 3.81786 21.3372 3.50613 21.0644C3.1944 20.7917 3.16282 20.3179 3.43558 20.0061L10.4356 12.0061C10.7083 11.6944 11.1822 11.6628 11.4939 11.9356ZM3 13.75H7.9131L6.6006 15.25H3C2.58579 15.25 2.25 14.9142 2.25 14.5C2.25 14.0858 2.58579 13.75 3 13.75ZM12 15.25H10.5869L11.8994 13.75H12C12.4142 13.75 12.75 14.0858 12.75 14.5C12.75 14.9142 12.4142 15.25 12 15.25Z" fill="currentColor"/>
</svg>
