<?xml version="1.0" encoding="UTF-8" standalone="no"?> <svg width="100%" height="100%" viewBox="0 0 24 24" fill="none" xmlns="http://www.w3.org/2000/svg">
<path fill-rule="evenodd" clip-rule="evenodd" d="M15.2999 11.9802C14.8367 12.4779 13.2355 13.8995 11.9996 13.8995C10.7672 13.8995 9.16064 12.48 8.6925 11.9804L8.25024 11.5001H6.50037V5.16378C6.50037 4.83997 6.59277 4.60913 6.66406 4.50018H17.3359C17.4072 4.60895 17.4999 4.83979 17.4999 5.16378V11.5001H15.7451L15.2999 11.9802ZM5.00037 9.31267V5.16378C5.00037 3.97077 5.67297 3.00018 6.49976 3.00018H17.4995C18.3268 3.00018 18.9999 3.97077 18.9999 5.16378V9.31292L21.4871 11.8787C21.5699 11.9473 21.6447 12.0244 21.7099 12.1086L21.778 12.1788L21.7677 12.1887C21.9148 12.4085 22 12.6691 22 12.9486V19.579C22 20.3637 21.3284 20.9999 20.5 20.9999H3.5C2.67157 20.9999 2 20.3637 2 19.579V12.9486C2 12.6691 2.08518 12.4085 2.2323 12.1887L2.22205 12.1788L2.29007 12.1086C2.35531 12.0245 2.4301 11.9473 2.51293 11.8787L5.00037 9.31267ZM5.00037 10.7494L4.24584 11.5278H5.00037V10.7494ZM18.9999 11.5278V10.7497L19.7542 11.5278H18.9999ZM3.5 19.4999V13.0278H7.26557C7.51068 13.3192 7.83539 13.6793 8.2155 14.0386C9.50057 15.2534 10.7739 15.8694 12 15.8694C13.2268 15.8694 14.4993 15.253 15.7823 14.0375C16.161 13.6787 16.4845 13.3191 16.7289 13.0278H20.5V19.4999H3.5ZM7.98596 6.99982C7.98596 6.72367 8.20982 6.49982 8.48596 6.49982H11.1219C11.3981 6.49982 11.6219 6.72367 11.6219 6.99982C11.6219 7.27596 11.3981 7.49982 11.1219 7.49982H8.48596C8.20982 7.49982 7.98596 7.27596 7.98596 6.99982ZM8.48596 8.49982C8.20982 8.49982 7.98596 8.72367 7.98596 8.99982C7.98596 9.27596 8.20982 9.49982 8.48596 9.49982H15.5139C15.7901 9.49982 16.0139 9.27596 16.0139 8.99982C16.0139 8.72367 15.7901 8.49982 15.5139 8.49982H8.48596Z" fill="currentColor"/>
</svg>
