<?xml version="1.0" encoding="UTF-8" standalone="no"?> <svg width="100%" height="100%" viewBox="0 0 25 24" fill="none" xmlns="http://www.w3.org/2000/svg">
<path fill-rule="evenodd" clip-rule="evenodd" d="M11.9962 3.35227C12.3086 3.62422 12.3414 4.09796 12.0695 4.4104L11.1965 5.41333C11.6296 5.3479 12.0675 5.3146 12.5067 5.31397L12.5086 5.31396C14.2381 5.31583 15.9174 5.8955 17.2798 6.9609C18.6423 8.0263 19.6096 9.51636 20.0284 11.1944C20.4471 12.8725 20.2932 14.6424 19.591 16.2229C18.8889 17.8035 17.6788 19.1042 16.1529 19.9184C14.627 20.7326 12.8729 21.0136 11.169 20.7169C9.46511 20.4202 7.90923 19.5627 6.74843 18.2806C5.58763 16.9984 4.88847 15.3653 4.76199 13.6404C4.63551 11.9155 5.08896 10.1978 6.05033 8.76007C6.28057 8.41575 6.74635 8.32326 7.09068 8.55351C7.43501 8.78375 7.52749 9.24953 7.29725 9.59386C6.52174 10.7536 6.15595 12.1393 6.25798 13.5307C6.36001 14.9221 6.924 16.2396 7.86039 17.2738C8.79677 18.308 10.0519 18.9998 11.4263 19.2392C12.8008 19.4785 14.2159 19.2518 15.4468 18.595C16.6777 17.9382 17.6538 16.889 18.2202 15.614C18.7866 14.339 18.9108 12.9112 18.573 11.5576C18.2352 10.2039 17.4548 9.00194 16.3558 8.14251C15.257 7.28327 13.9027 6.81568 12.5079 6.81397C11.986 6.81478 11.4662 6.87114 10.9573 6.98174L12.3374 7.98774C12.6721 8.23173 12.7456 8.70088 12.5017 9.0356C12.2577 9.37032 11.7885 9.44388 11.4538 9.19988L8.73239 7.21615C8.72015 7.20747 8.7081 7.19836 8.69626 7.18884C8.38519 6.93969 8.32235 6.48736 8.55951 6.16202C8.57683 6.13826 8.59529 6.11581 8.61476 6.09469L10.9381 3.42556C11.21 3.11313 11.6838 3.08032 11.9962 3.35227Z" fill="currentColor"/>
</svg>
